<mxfile host="65bd71144e">
    <diagram id="B_94vLErNEpKIDG6k2EF" name="Page-1">
        <mxGraphModel dx="423" dy="1775" grid="1" gridSize="10" guides="1" tooltips="1" connect="1" arrows="1" fold="1" page="1" pageScale="1" pageWidth="850" pageHeight="1100" math="0" shadow="0">
            <root>
                <mxCell id="0"/>
                <mxCell id="1" parent="0"/>
                <mxCell id="5" value="" style="edgeStyle=none;html=1;" parent="1" source="ksFr8LsLKuczAKV8OptK-1" target="ksFr8LsLKuczAKV8OptK-2" edge="1">
                    <mxGeometry relative="1" as="geometry"/>
                </mxCell>
                <mxCell id="11" value="" style="edgeStyle=none;html=1;" parent="1" source="ksFr8LsLKuczAKV8OptK-1" target="10" edge="1">
                    <mxGeometry relative="1" as="geometry"/>
                </mxCell>
                <mxCell id="ksFr8LsLKuczAKV8OptK-1" value="&lt;font style=&quot;font-size: 18px&quot;&gt;App.js&lt;/font&gt;" style="ellipse;whiteSpace=wrap;html=1;" parent="1" vertex="1">
                    <mxGeometry x="380" y="-790" width="90" height="80" as="geometry"/>
                </mxCell>
                <mxCell id="ksFr8LsLKuczAKV8OptK-2" value="&lt;font style=&quot;font-size: 18px&quot;&gt;Header.js&lt;/font&gt;" style="ellipse;whiteSpace=wrap;html=1;" parent="1" vertex="1">
                    <mxGeometry x="140" y="-530" width="120" height="120" as="geometry"/>
                </mxCell>
                <mxCell id="7" value="" style="edgeStyle=none;html=1;" parent="1" source="ksFr8LsLKuczAKV8OptK-3" target="6" edge="1">
                    <mxGeometry relative="1" as="geometry"/>
                </mxCell>
                <mxCell id="9" value="" style="edgeStyle=none;html=1;" parent="1" source="ksFr8LsLKuczAKV8OptK-3" target="8" edge="1">
                    <mxGeometry relative="1" as="geometry"/>
                </mxCell>
                <mxCell id="16" value="" style="edgeStyle=none;html=1;fontSize=18;" parent="1" source="ksFr8LsLKuczAKV8OptK-3" target="12" edge="1">
                    <mxGeometry relative="1" as="geometry"/>
                </mxCell>
                <mxCell id="27" value="" style="edgeStyle=none;html=1;fontSize=12;" parent="1" source="ksFr8LsLKuczAKV8OptK-3" target="26" edge="1">
                    <mxGeometry relative="1" as="geometry"/>
                </mxCell>
                <mxCell id="ksFr8LsLKuczAKV8OptK-3" value="&lt;font style=&quot;font-size: 12px&quot;&gt;TrackerContainer.js&lt;/font&gt;" style="ellipse;whiteSpace=wrap;html=1;" parent="1" vertex="1">
                    <mxGeometry x="470" y="-570" width="130" height="110" as="geometry"/>
                </mxCell>
                <mxCell id="ksFr8LsLKuczAKV8OptK-6" value="&lt;font style=&quot;font-size: 12px&quot;&gt;WatchList.js&lt;/font&gt;" style="ellipse;whiteSpace=wrap;html=1;" parent="1" vertex="1">
                    <mxGeometry x="330" y="-220" width="83" height="70" as="geometry"/>
                </mxCell>
                <mxCell id="ksFr8LsLKuczAKV8OptK-8" value="&lt;font style=&quot;font-size: 18px&quot;&gt;Nav.js&lt;/font&gt;" style="ellipse;whiteSpace=wrap;html=1;" parent="1" vertex="1">
                    <mxGeometry x="150" y="-680" width="80" height="80" as="geometry"/>
                </mxCell>
                <mxCell id="6" value="&lt;font style=&quot;font-size: 12px&quot;&gt;Filter.js&lt;/font&gt;" style="ellipse;whiteSpace=wrap;html=1;" parent="1" vertex="1">
                    <mxGeometry x="352" y="-460" width="73" height="70" as="geometry"/>
                </mxCell>
                <mxCell id="8" value="&lt;font style=&quot;font-size: 12px&quot;&gt;Coin.js&lt;/font&gt;" style="ellipse;whiteSpace=wrap;html=1;" parent="1" vertex="1">
                    <mxGeometry x="330" y="-330" width="65" height="70" as="geometry"/>
                </mxCell>
                <mxCell id="10" value="&lt;font style=&quot;font-size: 12px&quot;&gt;Footer.js&lt;/font&gt;" style="ellipse;whiteSpace=wrap;html=1;" parent="1" vertex="1">
                    <mxGeometry x="170" y="-370" width="115" height="100" as="geometry"/>
                </mxCell>
                <mxCell id="20" value="" style="edgeStyle=none;html=1;fontSize=12;" parent="1" source="12" target="19" edge="1">
                    <mxGeometry relative="1" as="geometry"/>
                </mxCell>
                <mxCell id="22" value="" style="edgeStyle=none;html=1;fontSize=12;" parent="1" source="12" target="21" edge="1">
                    <mxGeometry relative="1" as="geometry"/>
                </mxCell>
                <mxCell id="24" value="" style="edgeStyle=none;html=1;fontSize=12;" parent="1" source="12" target="21" edge="1">
                    <mxGeometry relative="1" as="geometry"/>
                </mxCell>
                <mxCell id="25" value="" style="edgeStyle=none;html=1;fontSize=12;" parent="1" source="12" target="23" edge="1">
                    <mxGeometry relative="1" as="geometry"/>
                </mxCell>
                <mxCell id="12" value="&lt;font style=&quot;font-size: 12px&quot;&gt;&lt;b&gt;Portfolio.js&lt;/b&gt;&lt;br&gt;-hold state and pass down as props to children&lt;br&gt;&lt;/font&gt;" style="ellipse;whiteSpace=wrap;html=1;" parent="1" vertex="1">
                    <mxGeometry x="600" y="-130" width="180" height="160" as="geometry"/>
                </mxCell>
                <mxCell id="13" value="" style="endArrow=classic;html=1;exitX=0.331;exitY=0.964;exitDx=0;exitDy=0;exitPerimeter=0;" parent="1" source="ksFr8LsLKuczAKV8OptK-3" target="ksFr8LsLKuczAKV8OptK-6" edge="1">
                    <mxGeometry width="50" height="50" relative="1" as="geometry">
                        <mxPoint x="360" y="60" as="sourcePoint"/>
                        <mxPoint x="410" y="10" as="targetPoint"/>
                    </mxGeometry>
                </mxCell>
                <mxCell id="17" value="" style="edgeStyle=none;html=1;entryX=0.963;entryY=0.254;entryDx=0;entryDy=0;entryPerimeter=0;exitX=0.056;exitY=0.708;exitDx=0;exitDy=0;exitPerimeter=0;" parent="1" source="ksFr8LsLKuczAKV8OptK-1" target="ksFr8LsLKuczAKV8OptK-8" edge="1">
                    <mxGeometry relative="1" as="geometry">
                        <mxPoint x="370.0045851867732" y="-440.0027051071654" as="sourcePoint"/>
                        <mxPoint x="246.94589261942855" y="-280.6163816775161" as="targetPoint"/>
                    </mxGeometry>
                </mxCell>
                <mxCell id="18" value="" style="edgeStyle=none;html=1;exitX=1;exitY=1;exitDx=0;exitDy=0;entryX=0.349;entryY=-0.007;entryDx=0;entryDy=0;entryPerimeter=0;" parent="1" source="ksFr8LsLKuczAKV8OptK-1" target="ksFr8LsLKuczAKV8OptK-3" edge="1">
                    <mxGeometry relative="1" as="geometry">
                        <mxPoint x="409.56458518677323" y="-387.0027051071654" as="sourcePoint"/>
                        <mxPoint x="286.50589261942855" y="-227.61638167751607" as="targetPoint"/>
                    </mxGeometry>
                </mxCell>
                <mxCell id="19" value="&lt;font style=&quot;font-size: 12px&quot;&gt;TradeForm.js&lt;/font&gt;" style="ellipse;whiteSpace=wrap;html=1;" parent="1" vertex="1">
                    <mxGeometry x="451.5" y="120" width="100" height="90" as="geometry"/>
                </mxCell>
                <mxCell id="21" value="&lt;font style=&quot;font-size: 12px&quot;&gt;PortfolioSummary.js&lt;/font&gt;" style="ellipse;whiteSpace=wrap;html=1;" parent="1" vertex="1">
                    <mxGeometry x="580" y="90" width="120" height="110" as="geometry"/>
                </mxCell>
                <mxCell id="23" value="&lt;font style=&quot;font-size: 12px&quot;&gt;TradeList.js&lt;/font&gt;" style="ellipse;whiteSpace=wrap;html=1;" parent="1" vertex="1">
                    <mxGeometry x="730" y="110" width="100" height="90" as="geometry"/>
                </mxCell>
                <mxCell id="29" value="" style="edgeStyle=none;html=1;" edge="1" parent="1" source="26" target="28">
                    <mxGeometry relative="1" as="geometry"/>
                </mxCell>
                <mxCell id="31" value="" style="edgeStyle=none;html=1;" edge="1" parent="1" source="26" target="30">
                    <mxGeometry relative="1" as="geometry"/>
                </mxCell>
                <mxCell id="33" value="" style="edgeStyle=none;html=1;" edge="1" parent="1" source="26" target="32">
                    <mxGeometry relative="1" as="geometry"/>
                </mxCell>
                <mxCell id="36" value="" style="edgeStyle=none;html=1;" edge="1" parent="1" source="26" target="35">
                    <mxGeometry relative="1" as="geometry"/>
                </mxCell>
                <mxCell id="38" value="" style="edgeStyle=none;html=1;" edge="1" parent="1" source="26" target="37">
                    <mxGeometry relative="1" as="geometry"/>
                </mxCell>
                <mxCell id="26" value="&lt;font style=&quot;font-size: 12px&quot;&gt;Favorites.js&lt;/font&gt;" style="ellipse;whiteSpace=wrap;html=1;" parent="1" vertex="1">
                    <mxGeometry x="480" y="-210" width="83" height="70" as="geometry"/>
                </mxCell>
                <mxCell id="28" value="&lt;font style=&quot;font-size: 12px&quot;&gt;Coin.js&lt;/font&gt;" style="ellipse;whiteSpace=wrap;html=1;" vertex="1" parent="1">
                    <mxGeometry x="395" y="-100" width="45" height="30" as="geometry"/>
                </mxCell>
                <mxCell id="30" value="&lt;font style=&quot;font-size: 12px&quot;&gt;Coin.js&lt;/font&gt;" style="ellipse;whiteSpace=wrap;html=1;" vertex="1" parent="1">
                    <mxGeometry x="450" y="-105" width="47.5" height="35" as="geometry"/>
                </mxCell>
                <mxCell id="32" value="&lt;font style=&quot;font-size: 12px&quot;&gt;Coin.js&lt;/font&gt;" style="ellipse;whiteSpace=wrap;html=1;" vertex="1" parent="1">
                    <mxGeometry x="401" y="-60" width="47.5" height="35" as="geometry"/>
                </mxCell>
                <mxCell id="35" value="&lt;font style=&quot;font-size: 12px&quot;&gt;Coin.js&lt;/font&gt;" style="ellipse;whiteSpace=wrap;html=1;" vertex="1" parent="1">
                    <mxGeometry x="470" y="-67.5" width="47.5" height="35" as="geometry"/>
                </mxCell>
                <mxCell id="37" value="&lt;font style=&quot;font-size: 12px&quot;&gt;Coin.js&lt;/font&gt;" style="ellipse;whiteSpace=wrap;html=1;" vertex="1" parent="1">
                    <mxGeometry x="504" y="-105" width="47.5" height="35" as="geometry"/>
                </mxCell>
            </root>
        </mxGraphModel>
    </diagram>
</mxfile>